<?xml version="1.0" standalone="no"?><!DOCTYPE svg PUBLIC "-//W3C//DTD SVG 1.1//EN" "http://www.w3.org/Graphics/SVG/1.1/DTD/svg11.dtd"><svg t="1537328247216" class="icon" style="" viewBox="0 0 1024 1024" version="1.1" xmlns="http://www.w3.org/2000/svg" p-id="2157" xmlns:xlink="http://www.w3.org/1999/xlink" width="32" height="32"><defs><style type="text/css"></style></defs><path d="M625.664 132.608v67.072h309.76v43.008h-309.76v69.632h309.76v43.008h-309.76v68.608h309.76v43.008h-309.76v68.608h309.76v43.008h-309.76v68.608h309.76v43.008h-309.76v68.096h309.76v43.008h-309.76v89.088H1024v-757.76H625.664zM0 914.944L577.024 1024V0L0 109.056" p-id="2158" data-spm-anchor-id="a313x.7781069.0.i6" class="selected" fill="#0CC499"></path><path d="M229.376 660.48h-89.6l118.272-187.904-112.64-180.736h92.16l65.536 119.808 67.584-119.808h89.088l-112.64 177.664L466.944 660.48h-93.696l-70.144-125.44-73.728 125.44z" p-id="2159" data-spm-anchor-id="a313x.7781069.0.i5" class="" fill="#ffffff"></path></svg>