<?xml version="1.0" standalone="no"?><!DOCTYPE svg PUBLIC "-//W3C//DTD SVG 1.1//EN" "http://www.w3.org/Graphics/SVG/1.1/DTD/svg11.dtd"><svg t="1537328356723" class="icon" style="" viewBox="0 0 1024 1024" version="1.1" xmlns="http://www.w3.org/2000/svg" p-id="4006" xmlns:xlink="http://www.w3.org/1999/xlink" width="32" height="32"><defs><style type="text/css"></style></defs><path d="M67.82934 155.497517l0 713.004967 891.254673 0L959.084013 155.497517 67.82934 155.497517zM160.680051 809.105698l174.526919-232.698806 120.703059 160.912853 187.511651-250.040776L884.825752 809.105698 160.680051 809.105698zM899.655506 729.870076 643.42168 388.270001 455.910029 638.307707 335.20697 477.393831l-207.948099 277.264814L127.25887 214.95877l772.396635 0L899.655506 729.870076z" p-id="4007" fill="#FF6600"></path><path d="M454.027146 437.773462c41.011043 0 74.294077-33.282011 74.294077-74.293053 0-41.014112-33.282011-74.296123-74.294077-74.296123-41.011043 0-74.258261 33.282011-74.258261 74.296123C379.769908 404.491451 413.017126 437.773462 454.027146 437.773462z" p-id="4008" fill="#FF6600"></path></svg>