<?xml version="1.0" standalone="no"?><!DOCTYPE svg PUBLIC "-//W3C//DTD SVG 1.1//EN" "http://www.w3.org/Graphics/SVG/1.1/DTD/svg11.dtd"><svg t="1537263119760" class="icon" style="" viewBox="0 0 1024 1024" version="1.1" xmlns="http://www.w3.org/2000/svg" p-id="5263" xmlns:xlink="http://www.w3.org/1999/xlink" width="32" height="32"><defs><style type="text/css"></style></defs><path d="M176.759773 511.670495c0-122.784464-0.014326-245.569952 0.007163-368.354416 0.008186-47.330982 29.553083-77.091796 76.583213-77.103052 120.390951-0.029676 240.781902 0.046049 361.171829-0.157589 6.770194-0.011256 11.32186 2.090615 15.885805 6.946202 69.106937 73.508177 138.443096 146.800437 207.447702 220.403782 3.272533 3.490497 5.602601 9.404184 5.609765 14.193257 0.278339 191.530175 0.272199 383.061372 0.209778 574.591547-0.014326 44.303019-30.469965 74.602092-74.936713 74.616418-172.377976 0.056282-344.754928 0.058328-517.132904-0.001023-44.394093-0.01535-74.794473-30.381961-74.820056-74.726935C176.712701 758.607584 176.759773 635.139551 176.759773 511.670495zM586.982762 587.477019c-17.60803 0-33.528628-0.25685-49.421596 0.298805-2.182712 0.076748-5.057179 3.836375-6.187933 6.496971-5.472642 12.870122-10.462283 25.944905-15.616676 38.950104-2.50403 6.315846-4.995781 12.636808-8.320503 21.048385-10.806113-21.808702-20.188808-41.117466-30.02892-60.190871-1.436722-2.784416-4.980431-6.229888-7.66661-6.333242-15.59928-0.600681-31.233352-0.293689-48.213072-0.293689 2.117221 4.160763 3.515057 7.14984 5.119601 10.022261 14.153348 25.333992 28.03859 50.826596 42.714847 75.854619 4.246721 7.242961 3.702322 12.214183-0.837064 19.008936-19.540032 29.248138-38.465057 58.908668-57.580416 88.440262-1.783623 2.75474-3.334955 5.659907-5.773494 9.825786 16.030092 0 30.617321-0.333598 45.176922 0.146333 6.887874 0.226151 11.062963-1.789763 14.833847-7.880481 12.905938-20.846794 26.533306-41.246403 40.632419-62.966077 11.855002 21.901823 22.944572 42.548048 34.242895 63.078641 1.540076 2.798742 4.054339 7.103792 6.240121 7.179516 17.128099 0.596588 34.285874 0.330528 52.78418 0.330528-2.816139-4.64888-4.501524-7.571443-6.319939-10.410094-19.156292-29.910217-38.156018-59.923788-57.661258-89.604784-3.780093-5.752004-3.783163-9.737782-0.187265-15.507182 12.096503-19.412119 23.567765-39.213094 35.246759-58.885132C575.509453 607.078449 580.784596 598.025259 586.982762 587.477019zM349.461113 790.126438c0-54.197366 0-107.614973 0-162.123424 18.934235 0 36.832883 0 54.538127 0 0-13.96506 0-26.814716 0-39.951921-50.541093 0-100.533694 0-150.590763 0 0 13.710256 0 26.801413 0 40.983413 17.919115 0 35.130102 0 52.983725 0 0 54.277184 0 107.449197 0 161.090908C320.610018 790.126438 334.143243 790.126438 349.461113 790.126438zM712.690812 790.123368c0-54.19532 0-107.615996 0-162.128541 18.940374 0 36.84107 0 54.529941 0 0-13.967106 0-26.818809 0-39.933501-50.550303 0-100.545974 0-150.59281 0 0 13.728676 0 26.829042 0 40.989553 18.59245 0 36.493146 0 55.033407 0 0 54.249555 0 107.423615 0 161.072489C685.200714 790.123368 698.051393 790.123368 712.690812 790.123368zM763.704672 291.936979c-45.146223-47.883567-88.323605-93.678566-133.335774-141.420917 0 43.892673-0.172939 84.802408 0.134053 125.70805 0.067538 9.067516 7.157004 15.056927 17.156752 15.57779 8.181333 0.425695 16.401552 0.130983 24.604374 0.13303C701.888791 291.941072 731.514529 291.936979 763.704672 291.936979z" p-id="5264"></path></svg>