<?xml version="1.0" standalone="no"?><!DOCTYPE svg PUBLIC "-//W3C//DTD SVG 1.1//EN" "http://www.w3.org/Graphics/SVG/1.1/DTD/svg11.dtd"><svg t="1537263241687" class="icon" style="" viewBox="0 0 1024 1024" version="1.1" xmlns="http://www.w3.org/2000/svg" p-id="6847" xmlns:xlink="http://www.w3.org/1999/xlink" width="32" height="32"><defs><style type="text/css"></style></defs><path d="M0 128l0 768 1024 0 0-768-1024 0zM192 832l-128 0 0-128 128 0 0 128zM192 576l-128 0 0-128 128 0 0 128zM192 320l-128 0 0-128 128 0 0 128zM768 832l-512 0 0-640 512 0 0 640zM960 832l-128 0 0-128 128 0 0 128zM960 576l-128 0 0-128 128 0 0 128zM960 320l-128 0 0-128 128 0 0 128zM384 320l0 384 256-192z" p-id="6848" fill="#1296db"></path></svg>